<svg width="34" height="34" viewBox="0 0 34 34" fill="none" xmlns="http://www.w3.org/2000/svg">
<g clip-path="url(#clip0_3_70)">
<path d="M21.75 26.9165L21.7499 26.4167H21.25H12.75H12.2331L12.2503 26.9333L12.2574 27.1458L12.2577 27.1563L12.2585 27.1667C12.3216 28.0053 12.6993 28.789 13.3159 29.3608C13.9325 29.9326 14.7425 30.2502 15.5834 30.25C15.5834 30.25 15.5835 30.25 15.5835 30.25H18.4167H18.425L18.4334 30.2497L18.6459 30.2426L18.6563 30.2423L18.6667 30.2415C19.5053 30.1784 20.2891 29.8007 20.8609 29.1841C21.4327 28.5675 21.7503 27.7575 21.75 26.9165ZM27.411 12.4017L27.411 12.4017L27.4107 12.3929C27.3181 9.69359 26.1807 7.13581 24.2385 5.25905C22.2962 3.38229 19.7009 2.3333 17 2.33334C14.2374 2.33334 11.5878 3.43081 9.63433 5.38431C7.68083 7.33782 6.58336 9.98734 6.58336 12.75V17.9643L4.05498 23.0211L4.04931 23.0324L4.04422 23.044L3.97905 23.1928L3.97369 23.205L3.969 23.2175C3.85192 23.529 3.81212 23.8642 3.85299 24.1945C3.89386 24.5247 4.0142 24.8402 4.20368 25.1137C4.39316 25.3873 4.64614 25.6108 4.94094 25.7652C5.2357 25.9195 5.56348 26.0001 5.8962 26C5.89625 26 5.8963 26 5.89634 26H28.1039H28.1169L28.1299 25.9993L28.2928 25.9908L28.3059 25.9901L28.319 25.9888C28.6498 25.9541 28.9673 25.8397 29.2443 25.6554C29.5212 25.4711 29.7494 25.2225 29.9092 24.9308C30.0691 24.639 30.1558 24.3129 30.1621 23.9803C30.1683 23.6477 30.0939 23.3186 29.9451 23.0211C29.9451 23.0211 29.9451 23.021 29.9451 23.021L27.4167 17.9643V12.75H27.4168L27.4166 12.7417L27.411 12.4017Z" fill="white" stroke="black"/>
</g>
<defs>
<clipPath id="clip0_3_70">
<rect width="34" height="34" fill="white"/>
</clipPath>
</defs>
</svg>
