<svg width="40" height="40" viewBox="0 0 40 40" fill="none" xmlns="http://www.w3.org/2000/svg">
<g clip-path="url(#clip0_1_12)">
<path d="M34.4445 34.4445H5.55557C5.26088 34.4445 4.97827 34.5615 4.7699 34.7699C4.56152 34.9783 4.44446 35.2609 4.44446 35.5556C4.44446 35.8503 4.56152 36.1329 4.7699 36.3412C4.97827 36.5496 5.26088 36.6667 5.55557 36.6667H34.4445C34.7391 36.6667 35.0218 36.5496 35.2301 36.3412C35.4385 36.1329 35.5556 35.8503 35.5556 35.5556C35.5556 35.2609 35.4385 34.9783 35.2301 34.7699C35.0218 34.5615 34.7391 34.4445 34.4445 34.4445Z" fill="white"/>
<path d="M20 32.7556L31.7889 20.9667C31.9709 20.7541 32.0661 20.4807 32.0553 20.2011C32.0444 19.9214 31.9285 19.6562 31.7306 19.4583C31.5328 19.2604 31.2675 19.1445 30.9879 19.1337C30.7082 19.1229 30.4348 19.218 30.2222 19.4L21.1111 28.5V5.55557C21.1111 5.26088 20.9941 4.97827 20.7857 4.7699C20.5773 4.56152 20.2947 4.44446 20 4.44446C19.7053 4.44446 19.4227 4.56152 19.2143 4.7699C19.006 4.97827 18.8889 5.26088 18.8889 5.55557V28.5L9.78891 19.4C9.6893 19.2837 9.56673 19.1892 9.42888 19.1225C9.29103 19.0558 9.14088 19.0184 8.98786 19.0125C8.83484 19.0065 8.68225 19.0323 8.53966 19.0882C8.39708 19.1441 8.26758 19.2288 8.1593 19.3371C8.05102 19.4454 7.96629 19.5748 7.91042 19.7174C7.85456 19.86 7.82878 20.0126 7.83469 20.1656C7.8406 20.3186 7.87808 20.4688 7.94477 20.6066C8.01146 20.7445 8.10593 20.8671 8.22224 20.9667L20 32.7556Z" fill="white"/>
</g>
<defs>
<clipPath id="clip0_1_12">
<rect width="40" height="40" fill="white"/>
</clipPath>
</defs>
</svg>
