<svg width="40" height="40" viewBox="0 0 40 40" fill="none" xmlns="http://www.w3.org/2000/svg">
<g clip-path="url(#clip0_1_18)">
<path fill-rule="evenodd" clip-rule="evenodd" d="M19.94 0C14.6518 0.000662891 9.58035 2.10169 5.84102 5.84102C2.10169 9.58035 0.000662891 14.6518 0 19.94C0 28.745 5.75 36.2075 13.5775 38.9C14.5575 39.0225 14.9225 38.41 14.9225 37.92V34.495C9.42 35.72 8.1975 31.805 8.1975 31.805C7.34 29.48 5.995 28.8675 5.995 28.8675C4.16 27.645 6.115 27.645 6.115 27.645C8.0725 27.7675 9.175 29.725 9.175 29.725C11.01 32.7825 13.8225 31.925 14.925 31.4375C15.045 30.0925 15.6575 29.2375 16.1475 28.7475C11.7425 28.2575 7.095 26.545 7.095 18.8375C7.095 16.6375 7.8275 14.9225 9.175 13.455C9.05 13.0875 8.3175 11.01 9.42 8.3175C9.42 8.3175 11.1325 7.8275 14.9225 10.3975C16.5125 9.9075 18.2275 9.785 19.94 9.785C21.6525 9.785 23.365 10.03 24.955 10.3975C28.7475 7.83 30.46 8.3175 30.46 8.3175C31.56 11.01 30.825 13.0875 30.7025 13.5775C32.0497 15.0452 32.7927 16.9677 32.7825 18.96C32.7825 26.6675 28.1325 28.2575 23.7325 28.7475C24.465 29.3575 25.0775 30.58 25.0775 32.415V37.92C25.0775 38.41 25.4425 39.02 26.4225 38.9C30.3875 37.5619 33.8317 35.0114 36.2681 31.6091C38.7046 28.2068 40.01 24.1247 40 19.94C39.8775 8.93 30.95 0 19.94 0Z" fill="white"/>
</g>
<defs>
<clipPath id="clip0_1_18">
<rect width="40" height="40" fill="white"/>
</clipPath>
</defs>
</svg>
