<svg width="34" height="40" viewBox="0 0 34 40" fill="none" xmlns="http://www.w3.org/2000/svg">
<g clip-path="url(#clip0_1_45)">
<path d="M29.8254 27.6646C30.1924 27.8117 30.5088 28.0622 30.7361 28.3859C30.9401 28.6894 31.0834 29.0561 31.1732 29.486C31.2218 29.7386 31.2801 29.9717 31.3432 30.1903C31.4622 30.5998 31.6415 30.9894 31.8751 31.3463C31.9892 31.5236 32.1422 31.7179 32.3316 31.934C32.4944 32.1113 32.6401 32.3396 32.7688 32.6164C32.8875 32.8655 32.9512 33.1371 32.9558 33.413C32.9652 33.6782 32.8857 33.9389 32.7299 34.1537C32.5715 34.3623 32.3784 34.5422 32.1592 34.6856C31.8678 34.8871 31.5642 35.0644 31.2485 35.2174C30.9328 35.368 30.6171 35.5259 30.3014 35.691C29.8293 35.916 29.3782 36.1825 28.9535 36.4876C28.5746 36.7669 28.1934 37.119 27.8145 37.5513C27.3728 38.0461 26.8615 38.4739 26.2966 38.8214C26.0082 39.0044 25.6949 39.1451 25.3665 39.2391C25.0508 39.3266 24.7351 39.3849 24.4194 39.4091C23.6859 39.4091 23.0788 39.2829 22.5979 39.0303C22.1171 38.7777 21.6994 38.3163 21.3448 37.646C21.2428 37.4541 21.1432 37.3351 21.0412 37.2841C20.8837 37.2174 20.7179 37.1725 20.5482 37.1506L18.6272 37C17.9958 36.9514 17.3522 36.9247 16.6941 36.9247C16.1475 36.9254 15.6018 36.9693 15.0621 37.0559C14.5059 37.1457 13.9546 37.2526 13.4106 37.3789C13.2989 37.4031 13.1848 37.5003 13.0706 37.663C12.9285 37.8604 12.7692 38.0449 12.5946 38.2143C12.3581 38.4396 12.0824 38.6198 11.7811 38.7461C11.3518 38.9139 10.8941 38.9971 10.4332 38.9914C10.0155 38.9914 9.56622 38.9477 9.08536 38.8603C8.63551 38.7821 8.20049 38.6346 7.79579 38.4231C7.06576 38.0497 6.28656 37.7816 5.48136 37.6266C4.72122 37.4881 3.91979 37.3594 3.07222 37.2477C2.7913 37.2111 2.51245 37.16 2.23679 37.0947C1.98215 37.0371 1.74229 36.9271 1.53251 36.7717C1.34 36.6293 1.17949 36.4481 1.06136 36.2399C0.931858 35.9745 0.866158 35.6826 0.869507 35.3874C0.869507 34.994 0.920507 34.6151 1.02251 34.2484C1.12451 33.8841 1.18036 33.4956 1.19251 33.0924C1.19251 32.8131 1.17308 32.5411 1.13665 32.2764C1.09649 31.993 1.07055 31.7076 1.05894 31.4216C1.05894 30.778 1.21193 30.3044 1.51551 29.9984C1.81908 29.6949 2.26108 29.4544 2.84394 29.2771C3.10287 29.1988 3.34673 29.0773 3.56522 28.9177C3.76565 28.7665 3.95552 28.6018 4.13351 28.4247C4.31421 28.2431 4.47914 28.0465 4.62651 27.837C4.77951 27.6209 4.94951 27.4047 5.13894 27.191C5.17673 27.1424 5.19724 27.0826 5.19722 27.021C5.19722 26.868 5.18994 26.7223 5.17779 26.5839L5.13894 26.1273C5.13894 25.2676 5.27251 24.403 5.53722 23.5287C5.80436 22.6544 6.15165 21.8044 6.58151 20.9666C7.01069 20.1337 7.49253 19.329 8.02408 18.5574C8.55351 17.7876 9.08051 17.0711 9.59779 16.413C10.3004 15.5334 10.8579 14.5471 11.2492 13.4914C11.6135 12.4811 11.8054 11.3786 11.8175 10.1886C11.8175 9.68586 11.7932 9.18557 11.7422 8.69257C11.6913 8.18823 11.6661 7.68162 11.6669 7.17471C11.6669 6.162 11.7811 5.25129 12.0069 4.44257C12.2352 3.63143 12.5898 2.93686 13.0706 2.354C13.5515 1.77114 14.1781 1.33643 14.9479 1.045C15.7227 0.753571 16.6455 0.595714 17.7189 0.571428C18.9988 0.571428 20.0164 0.824 20.7765 1.33157C21.5342 1.83671 22.1171 2.49971 22.5202 3.323C22.9258 4.14386 23.1856 5.06186 23.2974 6.07457C23.4139 7.08486 23.4771 8.10971 23.4892 9.14671V9.46971C23.4892 9.98943 23.4941 10.4509 23.5086 10.854C23.5313 11.6736 23.7179 12.4804 24.0575 13.2267C24.2348 13.6177 24.4995 14.0427 24.8541 14.4969C25.4612 15.2959 26.0829 16.0997 26.7144 16.9084C27.3458 17.7171 27.9214 18.5526 28.4386 19.4099C28.9584 20.272 29.3834 21.1706 29.7112 22.1056C30.0415 23.043 30.2115 24.0533 30.2236 25.1413C30.2269 25.9991 30.0924 26.8494 29.8254 27.6646ZM13.9085 7.896C14.0834 7.896 14.2291 7.93971 14.3457 8.02714C14.4641 8.12247 14.5554 8.24726 14.6104 8.389C14.6713 8.53486 14.7153 8.68724 14.7415 8.84314C14.7658 8.99614 14.7804 9.154 14.7804 9.31914C14.7843 9.42345 14.7644 9.52729 14.7221 9.62271C14.6805 9.70335 14.6226 9.77446 14.5521 9.83157L14.3238 10.021C14.2424 10.0899 14.1669 10.1655 14.0979 10.2469C14.0069 10.3886 13.8827 10.5062 13.7361 10.5893C13.5857 10.6766 13.4398 10.7714 13.2989 10.8734C13.1644 10.971 13.0377 11.079 12.9201 11.1964C12.8613 11.2598 12.8159 11.3345 12.7867 11.4158C12.7575 11.4972 12.745 11.5837 12.7501 11.67C12.7501 11.7841 12.8059 11.8789 12.9201 11.9541C13.2033 12.1325 13.4279 12.39 13.5661 12.6949C13.6924 12.9863 13.8332 13.2704 13.9838 13.5497C14.1344 13.8266 14.3311 14.0597 14.5715 14.2516C14.8119 14.441 15.1859 14.5357 15.6886 14.5357H15.8052C16.3104 14.5114 16.7912 14.3779 17.2478 14.1374C17.7019 13.897 18.1585 13.6444 18.6126 13.3773C18.6918 13.3328 18.7747 13.2954 18.8604 13.2656C18.9486 13.2341 19.0313 13.189 19.1056 13.132L20.4899 12.0513C20.514 11.9699 20.5335 11.8872 20.5482 11.8036C20.563 11.7148 20.5759 11.6257 20.5871 11.5364C20.5913 11.4157 20.5573 11.2967 20.4899 11.1964C20.4278 11.1083 20.3515 11.0312 20.2641 10.9681C20.167 10.9019 20.0569 10.8572 19.9411 10.837C19.8253 10.8138 19.7116 10.7813 19.6011 10.7399C19.2984 10.6776 19.009 10.5625 18.7462 10.3999C18.4854 10.2379 18.2045 10.1105 17.9108 10.021C17.8622 10.0064 17.8234 9.97 17.7967 9.90686C17.7677 9.83207 17.7426 9.75588 17.7214 9.67857C17.6964 9.59851 17.6897 9.51384 17.7019 9.43086C17.7158 9.36725 17.709 9.3009 17.6825 9.24143C17.6825 9.09086 17.6946 8.933 17.7214 8.76786C17.7476 8.60067 17.8053 8.43997 17.8914 8.29429C17.9654 8.15936 18.0692 8.04308 18.1949 7.95429C18.3447 7.86691 18.5146 7.82004 18.6879 7.81829C19.0814 7.81829 19.3655 7.964 19.5428 8.25543C19.7201 8.54686 19.8148 8.86257 19.8269 9.20257C19.8301 9.3537 19.7976 9.50344 19.7322 9.63971C19.6674 9.76936 19.6341 9.91248 19.6351 10.0574C19.6351 10.1594 19.6691 10.2274 19.7322 10.2663C19.8087 10.3082 19.8931 10.3339 19.9799 10.3416C20.2714 10.3416 20.4584 10.2736 20.5482 10.1351C20.6504 9.94232 20.7022 9.72678 20.6988 9.50857C20.6988 9.21714 20.6745 8.89414 20.6259 8.53957C20.5779 8.19653 20.4745 7.86355 20.3199 7.55357C20.1784 7.26247 19.9783 7.00369 19.7322 6.79343C19.4687 6.58405 19.1383 6.47708 18.8021 6.49229C18.1464 6.49229 17.6704 6.655 17.3789 6.98529C17.0875 7.31314 16.9369 7.80614 16.9248 8.46429C16.9248 8.65371 16.9369 8.84314 16.9612 9.03257C16.9855 9.22443 17.0001 9.41386 17.0001 9.60329C17.0001 9.66643 16.9928 9.698 16.9807 9.698C16.9412 9.68944 16.903 9.6764 16.8665 9.65914C16.7909 9.62846 16.7156 9.59689 16.6407 9.56443C16.5478 9.52523 16.452 9.49355 16.3541 9.46971C16.1927 9.4305 16.0251 9.4239 15.8611 9.45029C15.7604 9.46305 15.659 9.46954 15.5575 9.46971C15.3802 9.46971 15.2904 9.43814 15.2904 9.375C15.2904 9.18557 15.2807 8.94514 15.2539 8.65371C15.2297 8.36229 15.1665 8.07086 15.0645 7.77943C14.9797 7.52014 14.8516 7.27709 14.6856 7.06057C14.5326 6.87114 14.3068 6.76914 14.0032 6.757C13.7993 6.75229 13.6016 6.82721 13.4519 6.96586C13.2961 7.11008 13.1619 7.27614 13.0536 7.45886C12.9373 7.65617 12.866 7.87676 12.8448 8.10486C12.8244 8.3078 12.7993 8.51023 12.7695 8.712C12.7793 9.04705 12.8365 9.37903 12.9395 9.698C13.0027 9.89957 13.0731 10.0769 13.1484 10.2299C13.2236 10.3804 13.3135 10.4557 13.4155 10.4557C13.4762 10.4557 13.5612 10.412 13.6608 10.3246C13.7628 10.2347 13.8138 10.1546 13.8138 10.0769C13.8138 10.038 13.7944 10.0137 13.7555 10.0016C13.7188 9.98893 13.6802 9.98236 13.6414 9.98214C13.5539 9.98214 13.4762 9.93843 13.4131 9.84857C13.348 9.75547 13.2972 9.65315 13.2625 9.545C13.2227 9.42577 13.1846 9.30595 13.1484 9.18557C13.0727 8.85791 13.1203 8.51387 13.2819 8.219C13.3961 8.015 13.6049 7.90814 13.9085 7.896ZM9.77022 37.4371C10.0738 37.4371 10.3725 37.4129 10.6639 37.3594C10.9524 37.3098 11.2292 37.2069 11.4799 37.0559C11.7204 36.9167 11.9172 36.7132 12.0482 36.4681C12.1864 36.1836 12.2641 35.8735 12.2765 35.5574C12.2765 35.3315 12.2379 35.1073 12.1624 34.8944C12.0852 34.6772 11.9764 34.4726 11.8394 34.2873C11.6895 34.0497 11.5248 33.8218 11.3464 33.6049C11.1678 33.3871 11.0032 33.1584 10.8534 32.92C10.6172 32.5729 10.3824 32.2248 10.1491 31.8757C9.92322 31.5357 9.69494 31.1763 9.46908 30.795C9.26939 30.4719 9.07907 30.1431 8.89836 29.809C8.71268 29.468 8.49646 29.1444 8.25236 28.8424C8.09822 28.65 7.92033 28.4778 7.72293 28.33C7.52014 28.1776 7.27228 28.0973 7.01865 28.1017C6.75407 28.0978 6.49761 28.1931 6.29979 28.3689C6.0737 28.5659 5.86414 28.7811 5.67322 29.0124C5.44929 29.2749 5.20834 29.5223 4.95194 29.7531C4.68479 29.9936 4.34479 30.183 3.92708 30.3214C3.6444 30.3972 3.38438 30.5406 3.16936 30.7391C2.99208 30.9164 2.90222 31.1884 2.90222 31.5551C2.90222 31.8077 2.92165 32.0603 2.96051 32.3129C2.99694 32.5654 3.02365 32.8204 3.03579 33.073C3.03579 33.413 2.98722 33.736 2.88279 34.0396C2.78483 34.3266 2.73398 34.6276 2.73222 34.9309C2.73222 35.2733 2.85365 35.5137 3.09165 35.6521C3.33451 35.793 3.60408 35.8877 3.90765 35.9363C4.28894 36.0019 4.64836 36.0504 4.99079 36.0893C5.33079 36.1281 5.66594 36.1864 5.99622 36.2593C6.32408 36.337 6.65193 36.4171 6.98222 36.507C7.31008 36.5944 7.65979 36.7353 8.02651 36.9247C8.09936 36.9611 8.21594 37.0073 8.36651 37.0559L8.87894 37.2259C9.06836 37.2914 9.24565 37.3424 9.41079 37.3789C9.52832 37.4104 9.64875 37.4299 9.77022 37.4371ZM16.7159 35.1591C17.0705 35.1591 17.4494 35.1227 17.8549 35.045C18.6807 34.8903 19.4792 34.6153 20.2252 34.229C20.5725 34.052 20.9026 33.843 21.2112 33.6049C21.2419 33.5703 21.268 33.5319 21.2889 33.4907C21.3131 33.4419 21.3319 33.3906 21.3448 33.3377V33.3183C21.4201 33.0414 21.4832 32.7354 21.5342 32.4076C21.5868 32.0736 21.6314 31.7383 21.6678 31.4021C21.7045 31.066 21.7491 30.7308 21.8014 30.3967C21.8499 30.0689 21.8961 29.7459 21.9325 29.4301C21.9835 29.0901 22.0466 28.7599 22.1219 28.4441C22.1996 28.1284 22.2992 27.8297 22.4255 27.5504C22.5503 27.2754 22.724 27.0253 22.9379 26.8121C23.187 26.5721 23.4681 26.3678 23.7734 26.205V26.1661L23.7539 26.1103C23.7582 25.9815 23.7976 25.8563 23.8681 25.7484C23.9531 25.609 24.0481 25.4759 24.1522 25.3501C24.2533 25.2224 24.3757 25.1132 24.5141 25.0271C24.6405 24.9514 24.7738 24.8879 24.9124 24.8377C24.8358 24.5325 24.7532 24.2289 24.6646 23.927C24.5767 23.6265 24.5005 23.3227 24.4364 23.0163C24.3742 22.6285 24.2989 22.2429 24.2105 21.8603C24.1401 21.5635 24.0509 21.2715 23.9434 20.986C23.8346 20.7078 23.6875 20.4462 23.5062 20.2089C23.3192 19.9563 23.0836 19.6503 22.8068 19.2981C22.701 19.1799 22.6052 19.0532 22.5202 18.9193C22.4543 18.7688 22.4164 18.6074 22.4085 18.4433C22.3782 18.2772 22.3402 18.1127 22.2944 17.9503C22.1238 17.3353 21.9277 16.7276 21.7066 16.1289C21.59 15.8092 21.4504 15.4983 21.2889 15.1987C21.1599 14.9588 21.0206 14.7246 20.8712 14.4969C20.7449 14.3074 20.6114 14.2127 20.4729 14.2127C20.1694 14.2127 19.8075 14.3341 19.3898 14.5746C18.9745 14.815 18.5301 15.0797 18.0638 15.3711C17.5951 15.6626 17.1409 15.9346 16.6965 16.1871C16.2545 16.4397 15.8562 16.5587 15.5016 16.5466C15.1233 16.5463 14.7558 16.4198 14.4574 16.1871C14.1357 15.9421 13.8425 15.6619 13.5831 15.3517C13.3184 15.036 13.0974 14.764 12.9201 14.5357C12.7428 14.3074 12.6117 14.1811 12.5218 14.1569C12.4222 14.1569 12.3639 14.2321 12.3518 14.3827C12.3383 14.5532 12.3318 14.7241 12.3324 14.8951V15.2181C12.3324 15.2959 12.3202 15.3444 12.2935 15.3711C12.1551 15.6626 12.0021 15.9467 11.8394 16.2236C11.6742 16.5029 11.5115 16.787 11.3464 17.0784C11.0192 17.6385 10.8365 18.2711 10.8145 18.9193C10.8145 19.1087 10.8266 19.2981 10.8534 19.4876C10.8776 19.677 10.9408 19.8616 11.0428 20.0389L11.0039 20.1117C10.9064 20.2471 10.7984 20.3746 10.6809 20.493C10.5613 20.6149 10.4539 20.7483 10.3604 20.8913C9.89583 21.5775 9.56083 22.343 9.37194 23.1499C9.18251 23.9586 9.08051 24.7819 9.06836 25.6149C9.06836 25.831 9.08293 26.0471 9.10722 26.2609C9.13151 26.477 9.14608 26.6907 9.14608 26.9069C9.14534 26.9769 9.13884 27.0467 9.12665 27.1157C9.11445 27.1847 9.10795 27.2545 9.10722 27.3246C9.37717 27.355 9.63689 27.4455 9.86736 27.5893C10.1588 27.7544 10.4745 27.9633 10.8145 28.2159C11.1545 28.4684 11.4799 28.7599 11.7835 29.0901C12.0871 29.418 12.3761 29.7386 12.6554 30.0567C12.9346 30.3724 13.1362 30.6881 13.2625 31.0039C13.3888 31.3196 13.4714 31.5794 13.5078 31.781C13.5143 31.9278 13.4908 32.0745 13.4386 32.2119C13.3864 32.3493 13.3066 32.4745 13.2042 32.58C12.9864 32.7924 12.729 32.96 12.4465 33.073C12.6626 33.4519 12.9274 33.7749 13.2431 34.0396C13.5588 34.3067 13.9012 34.5204 14.2679 34.6856C14.6346 34.8507 15.0329 34.9697 15.4628 35.045C15.8927 35.1227 16.3128 35.1591 16.7159 35.1591ZM24.3246 37.8549C24.5894 37.8549 24.8492 37.816 25.1018 37.7407C25.4845 37.631 25.8488 37.4648 26.1825 37.2477C26.5128 37.0316 26.8139 36.7669 27.0932 36.4487C27.753 35.6875 28.5601 35.0679 29.4659 34.6273L30.0925 34.3431C30.3075 34.2494 30.516 34.1415 30.7166 34.0201C30.8616 33.9283 30.996 33.8208 31.1174 33.6996C31.1785 33.6405 31.2268 33.5695 31.2594 33.4909C31.292 33.4124 31.3081 33.328 31.3068 33.243C31.3069 33.1453 31.2871 33.0486 31.2485 32.9589C31.2032 32.8578 31.1461 32.7624 31.0785 32.6747C30.9054 32.4338 30.741 32.1867 30.5855 31.934C30.4449 31.7041 30.3238 31.4629 30.2236 31.2127L29.9201 30.455C29.8106 30.1768 29.7213 29.8912 29.6529 29.6001C29.6266 29.5102 29.5819 29.4267 29.5218 29.3549C29.3997 29.1723 29.233 29.0241 29.0375 28.9242C28.8419 28.8243 28.6241 28.7761 28.4046 28.7841C28.1782 28.7833 27.9554 28.8419 27.7586 28.9541L27.1126 29.316C26.8878 29.4407 26.6603 29.5606 26.4302 29.6754C26.2065 29.788 25.9594 29.8462 25.7089 29.8454C25.485 29.8552 25.2643 29.7893 25.0824 29.6584C24.9078 29.5198 24.7653 29.345 24.6646 29.146C24.5567 28.9434 24.4618 28.7341 24.3805 28.5194L24.1522 27.8929C24.0533 28.0553 23.9395 28.2081 23.8122 28.3494C23.6822 28.4942 23.5794 28.6612 23.5086 28.8424C23.3435 29.2213 23.2415 29.6439 23.2051 30.1126C23.1419 30.846 23.0594 31.56 22.9574 32.257C22.8535 32.9677 22.6827 33.667 22.4474 34.3456C22.3802 34.5625 22.3291 34.7841 22.2944 35.0086C22.2567 35.2411 22.2307 35.4753 22.2166 35.7104C22.2166 36.3297 22.4085 36.8421 22.7874 37.2477C23.1662 37.6509 23.6786 37.8549 24.3246 37.8549Z" fill="black"/>
</g>
<defs>
<clipPath id="clip0_1_45">
<rect width="34" height="38.8571" fill="white" transform="translate(0 0.571428)"/>
</clipPath>
</defs>
</svg>
