<svg width="34" height="42" viewBox="0 0 34 42" fill="none" xmlns="http://www.w3.org/2000/svg">
<path d="M33.898 30.1908C32.9739 32.237 32.5319 33.1519 31.3449 34.9601C29.6867 37.4854 27.3453 40.6365 24.4507 40.6582C21.8759 40.6798 21.2114 38.9783 17.7171 39.0061C14.2229 39.0231 13.4949 40.6891 10.9171 40.6628C8.02249 40.6365 5.80631 37.7975 4.14649 35.2769C-0.494511 28.2065 -0.98442 19.9197 1.88394 15.5105C3.91313 12.3841 7.12458 10.5481 10.1398 10.5481C13.2106 10.5481 15.1409 12.2357 17.68 12.2357C20.1435 12.2357 21.6441 10.5435 25.1956 10.5435C27.8816 10.5435 30.7221 12.007 32.7513 14.5323C26.112 18.1703 27.1908 27.6532 33.898 30.1908ZM22.5003 7.72145C23.7923 6.06318 24.7721 3.72336 24.4167 1.33718C22.3087 1.48091 19.8437 2.827 18.4033 4.57027C17.0989 6.15745 16.0171 8.51582 16.439 10.7969C18.7387 10.8711 21.1187 9.50027 22.5003 7.72145Z" fill="black"/>
</svg>
